<svg width="605.3" height="578.7" xmlns="http://www.w3.org/2000/svg"><path d="M485 574.4c-.7-1.8-1.3-4.2-1.3-5.3 0-1.2-1.4-1.9-4-1.9-7.2 0-10.3-6.8-6-13 2-2.8 8.6-4.3 8.6-2 0 .6 2.5.8 5.5.6 7-.7 9 1.1 6.4 6-1 2-3 4.6-4.3 5.6-2 1.5-2.4 3-1.9 7.7.7 6.4-1 7.7-3 2.3zm-3.5-11.8c2.6-2 2.4-7-.2-6.4-1 .2-1.6-.7-1.6-1.9 0-2-.3-2-2.7.2-3 2.8-3.4 6-1 8.4 2 2 2.4 2 5.5-.3zm8.6-2.3c2.4-2.5 1.9-5.1-1.1-5.1-2 0-2.7.9-2.7 3.3 0 3.7 1.3 4.3 3.8 1.8zm-166.4 14.3c-6.3-1-12-1.4-12.8-1.2-.8.3-8.3-.9-16.7-2.7-8.3-1.8-21.8-3.6-29.9-4-8-.5-22.6-2-32.2-3.5-25.2-3.7-46.4-4.9-49.2-2.6-1.7 1.5-2.3 1.5-3.2 0-1.7-2.8-22-3.3-39.4-1-8 1.1-14.9 1.8-15.2 1.5-1.2-1.3 1.4-2 9.3-3 5.4-.6 8.6-1.6 9-2.8.5-1.5-.7-1.7-6.2-1-4.2.5-7.1.2-7.7-.6-.5-1-5.7-1.3-13.7-1.1-16.3.4-18.8.2-18.8-1.4 0-.7 5.6-1.4 12.3-1.7 8.5-.3 6.8-.5-5.6-.5-14 0-19.7.6-25.2 2.4-8.7 3-8.2 3-8.2.5 0-1.1-.1-2-.3-2l-7.7 2c-8.4 2.2-10.6 2.4-10.6.8 0-1.4 16.6-4.3 40.6-7 26.5-3 28.2-3.3 25.4-4.4l-4.7-1.9c-1.1-.4 1.5-1 5.7-1.2 4.2-.3 7.6-1 7.6-1.5 0-.6-1.5-2.5-3.3-4.2-4-3.8-10-13.6-10-16.5 0-3.8 2-2.3 4 2.9 1.3 3.4 2 4.2 2.4 2.6.8-4 3-2.5 3 2.1 0 3 1 5.5 3.3 7.6l3.3 3.1v-2.9c0-2-.8-2.9-2.7-2.9-3 0-3.4-1.3-1-3.7 2.3-2.3-.8-8.5-3.7-7.4-2.8 1-5-2.2-3-4.5 2.1-2.6 8.9 1.5 9.8 6 .4 2 1.3 4.5 2 5.6.7 1.1 1.8 3.3 2.5 4.9a7.7 7.7 0 0 0 4.7 3.7c4.8 1.2 2.8 4-2 3-2.2-.5-4-.3-4 .3 0 1.7 5.8 2.5 9 1.3 4.2-1.5 9.8-9.6 16.5-24l6.2-13.2-1.8-10a92.3 92.3 0 0 1-1.3-29.6c.5-3.9.4-7-.2-7a34 34 0 0 0-6 8.4c-5.7 10-13.7 19.8-14.9 18.6-.4-.5.8-2.5 2.6-4.4 2-2 3.7-4.5 3.9-5.5.2-1 .8-2.8 1.3-4 .6-1.3.6-3 .1-3.8-.5-.8-.2-2.3.7-3.4 1-1.1 1.2-2.4.7-3-.5-.5-2.3.6-3.8 2.5a32.5 32.5 0 0 1-6.3 5.5c-2.1 1.3-4.1 4.4-5.2 8-1 3.1-2.1 6-2.6 6.4-.5.4-2.8 5.8-5.1 12a9824.7 9824.7 0 0 1-6.3 17.6c-.2 1.8-2 2.7-4.1 2-1.9-.8-1.7-1.6 1.2-6.6 4-7 12.8-29 12.8-32.3a59 59 0 0 1 11.5-13.8c18.2-18.3 25-29.8 26.5-44.6.4-4-3.3-7.1-6.8-5.8-1 .5-2.3-.1-2.7-1.2-.5-1.3-2.6-2-5.8-2-2.8 0-7.2-.9-9.8-2-2.7-1-6.6-2-8.8-2-4.8 0-9.1-5-10.3-12-.4-2.7-1.1-5.5-1.6-6.1a23.5 23.5 0 0 0-8.5-5.4c-2.6-.9-3.2-3.1-.9-3.1 1 0 1-.6-.1-2-1-1.1-1.3-2.8-1-3.9.4-1-1.4-4.1-4-7a54.6 54.6 0 0 1-6.6-8.5l-1.7-3.3v3.7c0 2-1 5.5-2 7.7-2.2 4-7.4 7.9-7.4 5.3 0-.8 1-1.8 2-2.2 1.2-.5 1.8-1.6 1.5-2.6-.4-1 .1-3.5 1.2-5.5 1.7-3.3 1.6-4-1.5-8a22.5 22.5 0 0 1-3.7-6.3c-.5-3.2-3.6-5.9-7.6-6.8-5.7-1.2-4.7-3.3 1.4-3 3 .2 5.4.9 5.4 1.5 0 1.2 3.4 4.9 4.5 4.9.5 0 .9-2.3 1-5l.1-5 1 5.3c.5 3 1.9 7.2 3 9.5 2.3 4.3 9.8 12.5 11.5 12.5 1.6 0 1.6-11.3 0-14.3-1.8-3.4-1.6-3.7 2.6-5 2.8-.8 3-.6 2.1 2.7-.6 2.6-.4 3.4.6 2.7 1-.5 1.6-.1 1.6 1 0 2.3 3.2 3.8 6 2.7 1-.4 2 0 2 .9 0 1.2-1.8 1.5-6 1-5-.6-5.9-.3-6.5 2.1-1 3.7 2.5 8.9 5.8 8.9 1.5 0 2.7.6 2.7 1.3 0 1.7-2.1 1.7-5.8 0-2.5-1.3-2.6-1.2-.8.3 1.1 1 2.5 2.8 3 4 .4 1.3 2.4 3 4.2 3.7 1.9.7 3.4 1.8 3.4 2.4 0 1 3.2 1 14.6.4 3.2-.1 3.2-.2-1.3-4.8a23.5 23.5 0 0 0-8.5-5.8c-6-1.5-6.1-4.2-.2-2.9 4.7 1.1 14 9 14 12 0 2.2 10.4.7 13.3-1.8 1.2-1 4-2.5 6.4-3.4 2.8-1.1 4.3-2.7 4.3-4.3 0-1.7.8-2.4 2.3-2.2 1.6.3 2.8-1 3.9-4.2 1.4-4.3 4.5-7.3 4.5-4.3 0 .7-.7 1.6-1.5 1.8-.8.3-1.2 2-1 3.8.5 3.2.6 3.2 6.2-2.4 3.4-3.4 5.6-6.9 5.6-8.7 0-4.6-1.3-5.2-4.1-1.9-2 2.5-2 1.5.8-5.3a76.6 76.6 0 0 0 4.2-17.7c.8-8.3.6-9.4-1.4-9.4-1.3 0-2-.6-1.4-1.3 1-1.8-6.3-4.8-14.7-5.9a193.2 193.2 0 0 1-33.3-6.2c-1.8-1.7 1.8-1.5 15.6.7l17 2.7c3 .5 7.9 1.7 10.9 2.8 6.3 2.2 7.2 1.9 5.2-2-1.2-2.2-2.8-2.8-8.1-2.8-7.8 0-9-2.3-1.7-3l5-.4-6-1.7a99 99 0 0 0-47.5-2c-10.2 2-18.8 6.5-15 7.6a177 177 0 0 0 36 7c2.7-.5 3.9-.2 3.9 1 0 1 1.6 2.3 3.5 3 2.5.8-3.1 1.3-19.6 1.5-24.4.3-32-.5-33-3.5-.5-1.4 0-1.6 1.9-.9 5.2 2 20 3.5 27.1 2.6l7.3-.9-10.6-3.2a49 49 0 0 0-26.5-2.5c-3.3 1-3.8.8-3-1 .5-1.5.1-2.2-1.2-2.2-1 0-2 1-2 2 0 1.3-1.2 3.3-2.8 4.5-1.6 1.4-2.5 3-2 4 1.5 2.3 3 1.8 4.5-1.5 1-2.4 1.3-1.6 1 4.3l-.4 8.2c-.3 1.3-8.2 3.8-12.2 3.8-3.8 0-9.4-3.9-9.4-6.5 0-1-1.8-1.5-4.7-1.3-3.4.3-4.5.9-4 2.2 1.9 4.8 2.2 8 .8 8.9-.8.5-1.4-.3-1.4-2 0-1.5-1.5-4.2-3.3-6-5.4-5.4-14.4-3.6-9.5 1.9 1.2 1.3 2.1 4.6 2.1 7.5 0 5.8-1.5 5.4-2-.7-.4-5.5-2.6-7.8-6.7-7-3 .6-3.3 1.2-2.6 4.5.7 3 .4 3.8-1.2 3.8-1.3 0-2.1-1.1-2.1-3v-2.9l-2.1 3c-1.1 1.6-3.3 3-4.9 3-1.5 0-3.5 1-4.3 2.1-3 4.1-3.5-1.5-.6-7 3.7-7.2 3.9-16.2.5-20.8-1.4-2-3.6-3.6-4.7-3.7-1.1 0-2.6-.5-3.3-1.2-.7-.6-2.7-1.6-4.3-2l-3-1 2.7 6.9c1.5 3.7 2.3 7.4 1.9 8-1.8 3 1 6.6 5 6.6 3.4 0 3.8.4 2.5 2-1.2 1.4-2.5 1.6-5 .6-4.4-1.7-5.3-1.6-6.2.8-1.2 3 .4 6 3.2 6 1.4 0 2.6.6 2.6 1.3 0 2-6.4 1.6-7-.3-.6-1.6-5 7.2-5 9.8 0 .6 1.5 1.2 3.3 1.2 1.8 0 3.3.6 3.3 1.3 0 .7-1.5 1.3-3.3 1.3-2.8 0-3.3.7-3.3 4 0 2.3-.7 4-1.7 4-1 .1-.6.8.8 1.5 1.7 1 3.5 1 6.3-.2 3-1.2 4.4-1.2 5.7 0 1.4 1 2.3 1 3.5-.6 1.8-2.1 4-2.7 4-1 0 .6-2.1 3.3-4.7 6.2l-4.8 5.1 3.8-.7L28 357c2.2-.5 3.7-.3 3.7.5 0 .7-1.6 1.7-3.6 2.2-2.8.7-3.2 1.2-1.7 2.1 2.6 1.7 7 1.6 6 0-.5-.8 0-1.4 1.2-1.4 5.2 0 15.4-8.6 15.4-12.9 0-1.7.6-3 1.3-3 .8 0 1.4 1.1 1.4 2.6s.2 2.7.4 2.7c1.5 0 8.9-4.4 10.3-6 4.8-5.9 9.1 1.6 5.8 10-1.2 3-2.7 5.3-3.4 5.3-.8 0-3.1 1.8-5.3 4l-4 4 3.5 1.3c2 .8 9.4 1.2 16.5 1 10.7-.2 13.6.1 16.7 2.2 2 1.3 4 3.5 4.4 4.8.3 1.3 2.8 3.4 5.5 4.7 2.7 1.3 4.2 2.6 3.3 3-.9.3-4.5-1-8-2.7-3.5-1.7-9.2-4-12.7-4.9-3.5-1-6.4-2.3-6.4-3 0-.7 1-1 2.4-.5 1.3.4 4.4 1 7 1.3l4.6.7-4-2c-4.7-2.1-10.2-2.4-12-.6-.7.7-5 1.5-9.3 1.7-4.4.2-8.8 1-9.8 1.5-1 .7-2.9 0-4.9-1.9a7.8 7.8 0 0 0-7.2-2.3c-4.5.6-5 0-2.2-2.2 1.2-.9 1.7-2.7 1.2-5l-.7-3.7-5 2.5a51.8 51.8 0 0 1-14.8 3.4c-9.9 1-10 .9-14.8-3.5a25.9 25.9 0 0 1-6.3-9c-3-9.2-1.3-24.2 3.4-29.6 2.6-3 2.2-5.2-.9-5.2-4.8 0-3.3-5.6 2.3-8.7 6.4-3.3 7.1-7.3 2.3-12.1-3.5-3.5-3.5-3.6-1-6.1 3.1-3.1 16.5-5 19.3-2.6l6.1 5c3 2.3 4.3 4.5 4.3 7 0 2 .9 4.8 1.9 6.2 1.7 2.4 2 2.4 11.6-.6a828 828 0 0 1 12-3.6c1.2-.3 3.6 0 5.3.6 2.6 1 5.6 0 14.8-4.6a96.3 96.3 0 0 1 13-5.8c.7 0 3.4-2.1 6-4.7 2.6-2.5 6.5-5.8 8.9-7.2l4.2-2.6-4.3-2.2c-4.3-2.2-11.2-1.8-12.8.8-.4.6-1.7 1.2-2.8 1.2-1.6 0-1.8-.8-1.1-3.7.5-2 1.4-4 2.1-4.4.7-.4 1.1-3 1-5.8-.4-4-1.8-6.5-8-12.8-6.2-6.3-7.1-7.8-5.1-8.3 1.6-.5 3.4.7 5.5 3.5a57.5 57.5 0 0 0 31.4 23c1-.9-3.7-13.1-7.2-18.7-1.8-3-5.2-7.4-7.4-9.8-2.3-2.4-3.7-4.7-3.2-5.2 1.2-1.2-6.9-11.1-9-11.1-1 0-2-1.2-2.5-2.6-.4-1.6-2.6-3.1-5.8-4-4.4-1.2-5.6-1-8.5 1-2.3 1.8-3.2 3.5-2.9 6 .3 1.9-.3 4.7-1.1 6.4-1.3 2.4-1.2 3.1.6 4.1 2 1.2 3 5 1.2 5-1.9 0-15-6.7-15.9-8.1-.5-.9 0-2.3 1.3-3.2 2-1.5 2-1.9-.5-5-3.2-4-1.6-5.2 4.9-3.4 3.7 1 4.8.6 8.7-3 8.5-7.8 13.8-7 24 3.5 6.5 6.6 8 7.5 13.3 7.9 3.3.2 7.2 1 8.8 1.9 1.5.8 4.6 1.5 6.8 1.5s5.4.5 7 1.1l6.8 2c3 .7 3.5.5 2.8-1.2-.4-1.1-1.6-1.8-2.6-1.4-1 .4-1.8-.1-1.8-1.1 0-2.3-3-3.5-6.4-2.6-4.5 1.2-4.9-2.2-.8-6.3l4-3.9 6.8 3.5c7 3.4 10.2 3.4 8.8-.2-.4-1-.3-3 .1-4.1.8-2 1-2 3.3 0 2.7 2.4 4.2 2.8 4.2 1 0-.8-1.7-2.2-3.7-3.1-3.8-1.9-3.8-2.2-2.2-12 .5-3-.2-9.5-1.9-16.7a401 401 0 0 1-6.5-32.7c-.6-4.3-.3-4.9 1.5-4.2 2.5 1 6-2.8 6-6.5.1-3.2 4.1-3 4.1.3 0 2.5-2.7 6-5.3 7-1.7.5-.2 13 1.5 13 .6 0 1.1-.5 1.1-1 0-2 11.6-4.7 15.8-3.8 2.2.4 4.5 0 5.5-.9 1.2-1.2 1.9-1 2.9.8 1.3 2.4 10.4 3.2 16.7 1.5 3.2-.9 7.9-9.5 11.8-21.6 2.4-7.5 2-9.7-1.3-7-1.2 1-4.3 1.4-8.3 1a43.3 43.3 0 0 0-28 9.3c-6 4.9-8.4 4.9-8.4-.1 0-4.3-3.5-6.8-8.5-6.3-5.6.6-7.5 2.4-7.5 7 0 2.1-.6 3.8-1.3 3.8-.8 0-1.4-2-1.4-4.4 0-5.5 3.5-8.9 9-8.9 2.4 0 6-.7 8-1.5l6.4-2.5 12-5.1 9.3-4.2.4-10.2c.3-8.5.7-9.8 2-8 1.5 2 2.2 2.1 5.4.7 3-1.4 3.5-2.3 3-4.8-.5-1.7-.2-4.3.5-5.7 1-2 .7-3.9-1.6-8.2-3.1-5.8-6.4-8.2-6.4-4.7 0 1.1-1 2.6-2.2 3.3-2.1 1.2-2 5.2.3 11.2.5 1.3.3 2.4-.4 2.4-.8 0-2.2-2.7-3.1-6-1.4-4.6-2.5-6-4.5-6-2.2 0-1.8-.6 1.7-2.8 2.5-1.5 4.8-3.9 5.2-5.3.4-1.4 1.3-2.6 2.1-2.6s3.5-2 5.9-4.3c2.4-2.3 4.4-3.6 4.4-2.9 0 .7-.7 2-1.6 2.9-2.3 2.3 2.6 7.6 5.1 5.5 2.4-2 2.3-4.5-.2-6.5-2.2-1.9-2.6-4-.7-4 .7 0 2.7 2.5 4.6 5.6 1.9 3.2 3.4 5 3.4 4.2 0-2.6 4.1-3.3 6.2-1.2 4.3 4.3 6.3 1 2.3-3.5a9.9 9.9 0 0 1-2.4-4.8c-.1-1.3-.6-3-1.1-3.9-.6-1-.1-1.4 1.4-1.2 1.3.2 2.1 1.3 2 2.6-.7 3.5 7-1.7 8.5-5.8 1-2.7 1.2-2 1.2 4.2 0 4.2-.4 7.3-1 7-.6-.4-1-1.6-1-2.6 0-2.4-1.3-2.4-4.4-.1-2 1.5-2 2-.6 3.3 2.2 1.8 2 4.8-.5 10.6-1.5 3.4-2.7 4.3-5.2 4.2-7.5-.5-14.6 5.2-12 9.5.7 1 1.3 6 1.3 10.9 0 5 .5 9 1 9 2.8 0 8.3-3.6 8.3-5.4a37 37 0 0 1 12.3-16.7c4.8-1.5 10.2-6 13.1-11 1.4-2.4 2.6-4.7 2.6-5 0-.3-2.8-.6-6.3-.6-4.2 0-5.7-.5-4.3-1.2a124 124 0 0 1 26-1.5c2.2.4-3.8 2.5-7.6 2.6-2.9 0-3.4.6-2.8 2.9.5 1.8-.5 4-3.3 7-5.7 6.1-8.2 10.3-7.4 12.3.6 1.5 1.2 1.5 4.3 0 2-1 4.4-2.9 5.4-4 2.4-3 4-2.6 4.1.9.1 2 .4 2.3.9 1a6.8 6.8 0 0 1 2.4-3c1-.5 2-3.2 2.6-6 .5-2.7 2.4-7.5 4.1-10.6 2-3.4 3-6.4 2.4-8-.8-2-.7-2.2 1.2-.6 1.2 1 2.8 1.4 3.6.9.8-.5 1.4 0 1.4 1.2s.6 2.1 1.4 2.1c.8 0 1 .6.6 1.4-.5.7-1.4 1-2.1.5-2.6-1.6-7.6 3.2-8.5 8.1-.5 2.7-1.2 5.7-1.6 6.8-.5 1.2.2 1.9 2 1.9 1.6 0 2.9.6 2.9 1.3 0 .7 1.1 1.3 2.5 1.3 5.1 0 7.7 8.6 4.8 15.7-2 4.8-12.1 15-14.9 15-5.2 0-16 17.7-17 27.8-.3 3-.9 6-1.2 6.5-2.8 4.6 12.1 39.4 19 44.5 3.8 2.8 5.5 6.5 3 6.5a94 94 0 0 1-11-5l-10.2-5.1 3 9.7a73 73 0 0 0 5.2 13c1.2 1.9 2.4 6 2.8 9 .4 3.2 1.8 7.6 3.2 9.9 3.3 5.6 1.5 9-4 7.8-2.4-.5-3.9-.3-3.9.6 0 .8 2.3 1.5 5.1 1.5 5.9 0 7.5 1 5.5 3.4-1 1.3-.7 2.1 1.3 3.2 3 1.5 7.2 10.2 6.3 12.6-.3.8-.7 2-.8 2.8-.2.7-1 2-1.7 3-.7.9-1 1.7-.5 1.8l2.1.5c.8.2 3.2.4 5.4.5 2.3.1 3.8.8 3.6 1.7-.3 1.6 10 7.6 13.3 7.7 1 0 7.5 2.4 14.7 5.3 14.4 5.7 26.3 7.3 52.4 7 15.3-.2 23.8 1.4 30 5.7 2 1.5 6.9 4.3 10.6 6.2 6.1 3.2 7.8 5 13.3 14.7 1 2 3.2 3.8 4.7 4.2 1.5.4 3.2 2.2 3.9 4a14 14 0 0 0 3.3 4.9c1.3 1 1.9 2.9 1.4 4.6-.8 3.3 3.9 11 8 13.4 7.6 4.2 15 10 16.4 12.9 2.4 4.8 12.3 7 41.4 9 17.3 1.3 15.7.1 24.5 17.8a62.5 62.5 0 0 0 6.7 11.7c1.3 0 21.3-20.8 23.5-24.3 1.7-2.8 1.4-4.2-3.4-15a4138 4138 0 0 1-9.8-22.5l-4.5-10.5-20.7.7a367 367 0 0 0-31.7 2.4c-9.5 1.4-14.1 1.2-12.2-.6 1.4-1.3 37.1-4.8 49.1-4.8 12.2 0 13.3-.2 12.5-2.4a161 161 0 0 0-18.4-34.6c-3-3.2-4.2-5.2-3.1-5.5 3.1-1 11 10.3 18.5 26.3l7.3 16 13.3.4c7.4.3 13.6.4 13.9.2a90 90 0 0 0-4.5-14C535 290.6 526.4 256 531 260.6c.4.3 1 2.4 1.3 4.5 2.4 13.5 19.4 66.4 22.2 69.3.7.7 1.3 2.6 1.3 4.2a346 346 0 0 0 17.5 45.1c1.6 1.7 7.6-5.4 8.6-10.3.9-3.6 2-4.4 3.6-2.8 1 1-3.4 10-7.5 15.5-2.8 3.7-2.8 3.8-.2 8.7l3 6c.2.5-.1 1-.8 1-.7 0-2.3-2.5-3.5-5.6-2.5-6.3-1.6-6.8-12.4 6.5l-6.8 8.3 4 9.7c4.4 10.5 6.5 13.7 6.5 10 0-1.2.5-2.3 1.2-2.3.6 0 .8 2.5.4 5.6-.6 4.4-2 6.7-7.2 11.6-4.1 3.8-5.9 6.3-5 7 2.2 1.2.3 3.8-2.8 3.8-4.8 0-3.9-2.4 4-11.1l8-8.8-4.8-10.4A107 107 0 0 0 556 415c-.5-.5-3.6 2.1-7 6l-11.6 13.3a57.4 57.4 0 0 0-5.6 7c0 2.5 11.5 23.4 13.2 24 1.1.4 3.6 1.9 5.4 3.3l3.4 2.6-3 2c-2.4 1.8-2.7 2.8-1.6 5.6 2 5.5 1.4 6.9-1 2l-2.3-4.6-3.7 4.5c-4.4 5.2-4.7 6.6-1.4 6.6 3.7 0 12 3.3 14.7 5.7 1.4 1.3 3.1 2.3 4 2.3 2.4 0 3.4 2.9 1.4 4.1-1.3.9-.8 1.2 1.6 1.2 4 0 9 3.3 7.6 4.8-.6.6-1.8.3-2.6-.5-2.3-2.3-6.4-2-9.3.6-3.4 3-4.8 1.1-1.7-2.3 2.5-2.8 2.5-2.8-1.4-1.8a136.6 136.6 0 0 0-40 18.4c-1.5.6-2 1.6-1.3 3.2 2.4 5.9 2.3 6.8-1.1 7.7-4.5 1.1-6.2 0-5.3-3.6.9-3.2 1.6-3.7-17.3 10-8.1 5.8-13 7.8-10.6 4.1a141 141 0 0 1 21.4-15.9c2.7-1.5 4.8-3.3 4.8-4 0-.7-3-1.5-7-1.7-5.9-.4-7.4 0-10.3 2.9-3 3-4.6 2.1-2.3-1.3 3-4.4 18-6.4 21.4-3 2.8 2.9 1.7-.4-2.6-7.4a165 165 0 0 0-4.6-7.4c-.6-.7-10.3 7.4-19.4 16.2a154.3 154.3 0 0 1-28.8 23c-4.3 1.3-4-2.4.4-4.4 9.3-4.2 39-30.6 35.7-31.8-4.5-1.7-30 15-45.7 29.9-4 3.8-7.8 7-8.4 7-2.6 0-.5-4 3.9-7.4 4.5-3.5 4.7-3.8 2-4.7-2-.8-2.5-1.8-2-4.2.6-2.1-2.5.4-10.4 8.2-7 7-12.8 11.6-15.5 12.4-7.1 2-4 3.2 10 4.1 14.3 1 21.4 2.5 20.3 4.4-.3.6-1.2 1-2 .7a35 35 0 0 0-4-1c-2-.4-2-.3.5.8 1.7.7 2.6 2 2.1 2.8-1.6 2.6-13 6.7-23.9 8.7-15.2 2.7-18.2 2-4.3-.9 18.5-4 18.6-5.1.4-5.2-12.4 0-15.6.3-14.4 1.6 2.3 2.2 2.2 7.1 0 5.4-1.8-1.4-28.8-1.2-35.6.3-3.1.7-4 1.5-3.7 3.8.3 2.7-.3 2.9-11 3-6.3.2-16.5-.5-22.7-1.4zm32-1.5c0-.4-2-1.5-4.5-2.6-4.6-1.9-46.8-3.1-48.5-1.4-.5.4 0 .8 1 .9 1.1 0 8.3.9 16 1.8 14.8 1.8 36 2.6 36 1.3zm-32.6-8.8c.6-1 .4-1.1-.5-.6-.8.5-4.7.5-8.5 0-5.5-.7-6.4-1.2-4.4-2 1.8-.8 1.3-1-1.7-.4-2.7.5-4.3.2-4.3-.7 0-1.8-3.7-1.9-4.3 0-.3.9-2.9.8-8-.1-8.7-1.6-39.7-3.7-39.7-2.6 0 .8 19.9 5.6 28 6.7 11.4 1.6 42.4 1.4 43.4-.3zm31.9.6c-14-1.8-22-2.4-22-1.5 0 1.3 5.7 2 16.7 2 5.1 0 7.5-.2 5.3-.5zm39.3-.3c0-1.2-11.2-4-15.9-4-1.3 0-2.8.8-3.2 1.9-.5 1.3-3.3 2-8.5 2.4-4.2.2.3.6 10 .7 10 .2 17.6-.3 17.6-1zm-146-4.2c-10.1-2.7-17.4-3.2-18.6-1.3-.8 1.4 12.8 3.7 22 3.8 5.9 0 5.8 0-3.4-2.5zm124 1.5c1-1.7-8.2-1.7-12 0-2 .8-.8 1.1 4.3 1.2 3.8 0 7.3-.5 7.7-1.2zm62.6-2.6c.5-.7-2.7-1.6-6.9-2a327 327 0 0 1-12.1-1.6c-3-.4-4.2-.2-3.6.7.5.8 2.3 1.5 4 1.5 1.8 0 3.5.4 3.9 1 .9 1.5 13.8 1.9 14.7.4zm-284.4-6.5c-1.7-.3-3.7 0-4.4.7-.7.8.5 1 3.2.5 3.7-.6 3.9-.8 1.2-1.2zm280.2 1.5c-1-.3-2.7-.4-4 0-1.3.3-.6.6 1.6.6s3.3-.2 2.4-.6zM278 551.7c-.5-.4-1.6-.5-2.6 0-1 .3-.7.7.8.7 1.4 0 2.2-.2 1.8-.7zm125.4-5.9c.2-.5 1.5-.7 2.9-.3 2.8.7 16.2-7.8 13.6-8.7-2.4-.8-1.9-2.7.7-2.5 2.7.3 5.5-6.6 5.7-13.3 0-2.3-2-10.7-4.6-18.7-2.6-8-4.7-16-4.7-18 0-1.9-.4-5.4-.9-7.8l-.8-4.4-3.5 4.1c-3.6 4.2-9.5 7-9.5 4.4 0-.8.8-1.4 1.8-1.4s3.7-2 6.2-4.6l4.5-4.6-1.8-13.7c-1.4-10.4-1.5-13.7-.2-14.1 1.7-.6 2-10.7.4-13.4-2.4-3.8-5 0-6.4 9.4-1.3 9-5.2 20.8-6.4 19.5a26 26 0 0 1 1.9-7.8c1.3-4 2.8-10.3 3.3-13.9l1-6.5-5.1.8c-2.8.5-5.3 1.5-5.6 2.2-.7 2-2.9 1.7-2.9-.5 0-1.1 3.6-3 9.7-4.7 8.2-2.4 8.8-2.7 3.7-2.2-3.9.4-5.3.2-4-.6 1-.7 3.5-1.3 5.5-1.3 7 0 10.7-3.9 5.7-5.9-2-.7-2-1 0-2.9 3-3 2.7-6.3-.6-5.5-1.5.4-2.7.2-2.7-.5s1.2-1.2 2.7-1.2c1.8 0 2.7-.9 2.7-2.7 0-2.3-.6-2.5-3.7-1.8-4.7 1.1-4.7 1.1-4.7 5.1 0 1.9-.5 3.4-1.1 3.4-.7 0-1.2-1.5-1.2-3.3 0-2.3-.8-3.4-2.3-3.5-1.4 0-1.7-.3-.7-.8 2.4-1 4.5-5.2 3.6-7.5-.6-1.5-1.9-1.7-6.2-.7-3 .7-6.1 1-7 .7-.7-.3 1-1 4-1.5 2.9-.6 6.7-2 8.4-3 1.7-1 4-1.6 5-1.2 1 .4 2.1.1 2.6-.6.4-.7 1.5-1.2 2.4-1.1 4.6.5 6.2-.3 6.2-3.4 0-1.8-.6-3.6-1.3-4.1-.8-.5-1.4-2.7-1.5-5v-4.3l-1.6 5.2c-1 2.9-2.4 5.5-3.3 5.8-1 .3-1.3-.3-.8-1.6 1.1-3-3-2.7-4.7.2-1 1.8-1.7 2-2.5.7-.9-1.3-4.9-.6-17.5 3a666 666 0 0 1-16.7 4.7c-.3 0-.7 2.4-1 5.3-.6 6.2.5 6.5 9.6 3.3 3-1 7-2 8.5-1.9 1.5 0-2 1.5-7.9 3.1l-10.6 3-.8 7.2c-.6 6-.9 6.4-1.2 2.6-.2-2.5-.2-5.4-.1-6.3 0-1-.9-1.7-2.1-1.7-2.1 0-2-.2.2-2 1.5-1 2-1.9 1.2-2-.8 0-2.9 1.2-4.6 2.7-3.5 3-4 3.2-4 1.3 0-.7 2-2.3 4.6-3.5 3.8-1.9 4.6-3 5.2-7.7 1.4-12 4-23.7 7-30.7 2-5 2.3-5.2 4-2.8 2.4 3.3 2.5 5.5.1 3.6-1.4-1.2-2.2 0-3.9 5.5-1.2 3.8-2.5 9.2-3 12-.9 4.6-.7 5 2.3 5 3.1 0 28.3-6 30.3-7.3.6-.4.8-2.1.5-3.9-.6-2.8-1.6-3.3-7.9-4.1-4-.5-9.2-.6-11.5-.1l-4.3.8 3.3-2c2.6-1.5 2.8-2 1-2-1.3 0-2.3-.7-2.3-1.4 0-1.7.3-1.7 4.9 0 2 .8 5.6 1.1 8 .7 8.8-1.7 6.7-10.4-5.7-23.8-4.9-5.3-11-12.4-13.7-15.9a25.7 25.7 0 0 0-6-6.3c-.7 0-.4.8.5 2 1 1 1.3 2.3 1 2.7-.5.5-1.8-.8-3-2.6-2.7-4-7.7-4.5-16-1.4-6.8 2.6-26 4.2-26 2.2 0-.8 4.3-2.1 9.6-3 9.7-1.5 19.6-4.7 11.1-3.5-4.5.7-7.4-.2-7.4-2.1 0-.8 1.6-1 4-.6 7.3 1.5 5.5-1.7-2.3-3.8-4.2-1.2-10.4-3-13.7-4.1-11-3.7-20.6-6.2-25.3-6.5-2.6-.1-8.2-1.3-12.5-2.6-6-1.7-8.2-1.9-9.7-.7-1.4 1.2-1.5 2-.3 3.4 1 1.4 1 1.9 0 1.9-.9 0-1.5-.6-1.5-1.4 0-.7-1.2-1.3-2.6-1.3-3 0-4.8-2-2.8-3.3.8-.5 1.4 0 1.5.9 0 1.3.2 1.4.8 0 .3-.9 1.3-1.2 2-.8.8.5 1.2.1.8-.9a6 6 0 0 0-2.5-2.8l-8.9-5c-6.9-4-11-4.2-11-.7 0 1.4.8 1.6 3.3.6 4-1.5 4.7.5 1 2.6-3.6 1.8-8 .3-8.6-3-.5-4.2-9.4-8.1-18.7-8.3-4.2-.1-7.7 0-7.7.1 0 1 13.3 7 17 7.7 2.6.5 7 3.3 10.5 6.5 3.4 3.2 7.7 6.3 9.6 7 6.7 2.1 8.3 4.5 7.4 11l-.9 6 3.9-2.4c3.3-2.1 3.6-2.2 2-.2-1.7 2.2-1 5 1.2 5 1.3 0 3.3-4.8 3.3-8 0-1.1 1.4-2.2 3-2.4 3.6-.5 3.7.1.9 4.4-1.2 1.9-1.5 3.3-.8 3.3.8 0 1.6 1 1.9 2.4.4 2 1 1.7 4-1.6 2-2.1 4.2-3.4 4.7-2.9.5.6-1.7 3.5-5 6.6-3.3 3-7.3 8.3-8.9 11.7a24.6 24.6 0 0 1-4.4 7.2c-1 .5-.6-.9.6-3.3s2-4.6 1.6-5c-1.5-1.5-5.6 7.3-6.3 13.5-.8 6.6-1.3 6.5-3.4-.3-.8-2.8-6.1 1.2-5.4 4.1.4 1.5 0 2.2-.9 2-3.5-1.2-2.3-5 2.3-7.8 2.7-1.6 4.8-3.6 4.8-4.6 0-1 1.4-3.5 3-5.5 1.7-2.1 3.8-5.4 4.7-7.4 1.4-3.2 1.2-3.7-1.4-4.4-5.5-1.6-10.3-4-10.3-5 0-.6-2.3-3.6-5.2-6.7a34 34 0 0 1-6-8.6c-.5-1.6-2.8-4.5-5.2-6.5-3.6-3-5-3.4-10.7-2.7-5 .6-6.3.4-5.8-1 .8-2-7-4.8-13-4.8-5.2 0-3.1 2 3.8 3.8 6.5 1.6 8.6 3.6 6.3 5.8-1 1-3 .9-7-.7-3-1.2-6.1-1.9-6.8-1.4-.6.4-2 0-3-.8-2-1.7-7.4.2-7.4 2.6 0 .7-2 2.2-4.5 3.2s-5 3.2-5.5 4.8c-.5 1.6-.5 8.7 0 15.8.7 11 .4 14-1.8 20.5a63 63 0 0 1-17.6 25.7c-4.7 4.5-6.3 6.8-5 7 2 .5 9 23.3 9 29.4 0 1.5.7 3.1 1.4 3.6s1.3 2.2 1.3 4c0 1.6 1 3.4 2 3.8 1.2.5 1.7 1.6 1.1 3-1.3 3.5 7.7 28.3 12 32.9 2 2.2 3.5 4.7 3.2 5.5-.3.8.8 4.2 2.4 7.5 1.7 3.3 3.4 8 4 10.6.5 2.6 2.6 10.1 4.7 16.7 2 6.6 5 19.4 6.7 28.3 2.4 13.4 3.3 16.4 5.2 16.4 1.3 0 2.7.3 3.1.8.5.5 5.5 1 11.2 1.3 5.8.3 10.6 1.1 10.9 1.9.8 2.3 3.6 1.4 8.2-2.7 2.5-2.2 4.8-3.6 5.2-3.2.4.4 1.7-2.1 2.9-5.6 2.6-7.8 5.6-10.1 8.8-6.9 2.6 2.6 1.4 4.9-1.4 2.5-2.4-2-3.9 0-6.1 8.2-1 3.5-2.2 6.3-2.7 6.3-.6 0-2 1.4-3.1 3.2l-2 3 30.2-.3 30.2-.4.3-3.6c.1-2 .5-4.4.9-5.3.4-1 0-2-1-2.4-.8-.3-.5-.7.7-.7 1.7-.1 2.5-1.8 3.1-6.5 1.3-9.1 3.3-16.3 4.5-16.3a42 42 0 0 0 2.6-13c1.4-11.6 1.3-13.2-.7-14.6-1.6-1.3-1.8-2-.6-3.5 1.2-1.5 1.1-2.3-.4-3.6-2.6-2-2.6-4-.2-4 1.4 0 1.7-1.8 1.2-8.1-.4-6.4-1.1-8.7-3.4-10.7-1.9-1.5-2.5-2.8-1.7-3.5 2-1.4 2.5-7 .7-7-.8 0-1.1-.6-.7-1.3.4-.7-1.5-1.8-4.2-2.6-3.6-1-5.2-1-5.9.1-.6 1-3.4.6-9.3-1.4-9.6-3.2-14.4-3.6-15.3-1.1-.4 1-4 1.8-9.6 2-13.2.6-31.7.7-36.5.2-2.7-.2-4.8.4-5.8 1.9-1.7 2.3-4.1 3.2-2.8 1 .4-.7.1-1.5-.7-1.7-2.4-.8 0-10.1 2.6-10 1.5.2 2.2-.8 2.1-2.8 0-1.7.7-3 1.8-3 1.5 0 1.6-.4.5-1.8-1.2-1.4-.8-3.6 1.8-9.3 1.9-4.3 2.7-7.5 1.8-7.5-.8 0-1.1-.8-.7-1.8.3-1-.8-4-2.6-7-3.3-5.4-4.5-17.9-1.8-17.9.8 0 1 1.4.5 3.3-1.7 6.7 5.9 21 9.5 18A77.7 77.7 0 0 0 261 374c0-1.4-.9-3.3-2-4.2-2.4-2-2.7-5.4-.5-5.4.9 0 2.3-1 3.2-2.2 1.5-2.1 1.8-2.1 3.9 0 2.6 2.6 1.7 4.9-2 4.9-2.5 0-2.5.3.7 6.7 2.7 5.1 3.1 7.3 2 9.2-1.9 3.7-1.7 4 2.7 5.6 2.2.8 4 2 4 2.6 0 .7 1.6-.1 3.5-1.8a123 123 0 0 0 12.8-21.6l11.8-23.4c1.5-2.8 1.9-5.1 1.1-5.9a5.2 5.2 0 0 1-1.2-3.2c0-1.5.4-1.5 2-.3 1.4 1.3 2.1 1 3.3-1.1 1.2-2.3 1-2.8-1-2.9-1.6 0-1.8-.3-.4-.9 1-.4 2.5.2 3.3 1.3a54 54 0 0 0 15 7.7c.2 0 .5-.9.5-2 0-1 .6-2.2 1.4-2.7 1-.6 1.3.3 1 2.7-.4 3.4.2 4 6.7 6.4 6 2.3 7.3 2.4 8.4.8 1-1.4 1.1-1 .9 1.5-.3 1.8.5 4 1.6 5 1.7 1.4 1.6 1.7-.7 2.4-2 .6-3.8 4-6.9 13l-6.9 19.5-2.6 7.3-9.8 3c-5.4 1.7-12.2 4.2-15.1 5.6l-5.3 2.6 6 .8c3.9.6 10 0 17.6-1.7 12-2.7 16.4-1.8 8.7 1.8-2.4 1.1-3.3 1.7-2 1.4 1.4-.4 5.8-1.1 9.8-1.6 9.2-1 9.8 1.6.6 2.9-4 .5-6.9 1.7-7.3 2.9-.7 1.7.6 1.8 9.2 1 7-.6 10-.5 10 .6 0 .8-.9 1.5-2 1.5-4 0-.7 17.6 4.4 23 1.6 1.7 2.6 3.5 2.2 4-1.5 1.4.7 5.5 6.1 11.6 3 3.3 5.3 6.8 5.3 7.8s2.1 3.7 4.7 6c2.5 2.2 4.6 4.8 4.6 5.7 0 1 3 8 6.7 15.5 7.1 14.7 9.3 23.7 9.3 38.5 0 8.7 0 8.9 4 9.7 2.1.4 5.7.1 7.9-.6 3-1.1 4.8-1 8.2.8 5.2 2.7 3.6 5.6-1.8 3.2-4.4-2-9.8-.6-11 2.8-1.3 4.3-4.2 2.9-3.4-1.8.1-.6-.9-1-2.2-.7-1.4.3-2.5 2-2.7 4-.4 2.9.2 3.7 2.6 4.1 3.8.7 11-.4 11.5-1.7zm-162-16.2c1.8-1.4 2.2-2.8 1.6-5.5-.5-2-1.8-3.6-2.7-3.6-1 0-2.1-.5-2.6-1.2-.4-.6.5-.9 2-.5 2.3.6 2.6 0 2.6-3.8 0-2.4-1-5.6-2-7a13 13 0 0 1-2-6.7c0-2.5-1.8-6.9-4.6-11-6.8-10-10.5-20.8-9.7-28 .4-3.2.2-6.1-.5-6.5-1.8-1.1-1.4-3.3.5-2.5 2.6 1 5 7.3 5 13.3a42 42 0 0 0 6.8 21.3c2.4 2.7 5.8 11.2 10 25.3 1.2 4.4 3 9.2 4 10.6 2.3 3.3 2.4 5.6.2 5.8l-6.3 1c-4.2.8-4.4.7-2.3-1zM227.2 463c-.4-1-.7-.2-.7 1.6 0 1.9.3 2.6.7 1.7.4-1 .4-2.4 0-3.3zm81.1 67c.5-.8 2-1.4 3.3-1.4 3 0 6-3.3 5-5.9-.5-1-3.2-2.6-6.2-3.5-3-1-5.4-2.4-5.4-3.4 0-5-10.3-4.3-11.6.8-1 3.5-3.9 3.5-4.8 0-.9-3.4-8.3-3.6-11.8-.4-1.4 1.2-2.9 1.8-3.3 1.4-.5-.5 2.2-4 5.9-8 10.6-11 24.5-26.6 29.1-32.3 2.3-3 4.6-5 5.1-4.4 1.3 1.2-3.5 7.7-13.4 18.3-11 11.8-15.2 16.9-15.2 18.6 0 2.5 6 3 10 1 5.6-3 7.9-2.7 11.5 1.2 1.8 1.9 5 4.2 7.4 5.2 2.3 1 5 3.2 5.8 4.9 1.5 2.7 1.2 3.4-2 6.1-3.4 3-11 4.4-9.4 1.8zm-49.3-2-2-5.4c-.7-1.4-2-4.4-2.8-6.6-1.4-3.5-1.7-3.7-2.3-1.4-.9 3.6-4.2-8.2-4.8-17.1-.3-3.6-1-7-1.7-7.4-1.3-1-4.5-10.7-8.4-26a56.8 56.8 0 0 0-4.1-12.3c-.8-1-1-2.3-.6-3 .4-.8.2-2.7-.6-4.1-1.2-2.2-1-2.7.6-2.7 1 0 2.4 1.6 2.8 3.6a868 868 0 0 0 13.4 45.4c1 3.2 1.8 7.5 1.8 9.6 0 2 1.7 6.3 3.6 9.3l3.6 5.5 3.8-6.1c2-3.4 4.3-5.8 4.9-5.4.6.3 4.6-3.1 9-7.7 10.6-11.2 14.8-16.2 12.8-15-1 .5-1.7.4-1.7-.3 0-1.5 14.9-12.5 15.8-11.7.9 1-8.3 11.5-27.6 31.8a312.6 312.6 0 0 0-16.2 17.7c0 .4.9 2.4 2 4.4 1.1 2.3 1.4 4.4.7 5.6-1 1.5-1.4 1.4-2-.8zm139.4-58.4c0-.9 2-4 4.6-7 4.7-5.4 4.7-3.5 0 4.4-2.7 4.4-4.7 5.5-4.6 2.6zm-15-41.8c-1.2-1 2.6-5.8 4.6-5.8.6 0 .2 1-1 2.2-3 3-1 3.7 5.5 1.9 4.5-1.2 7.3-1 5.7.4-1.2 1-14 2.2-14.9 1.3zm-172.5-7.2c-4.5-8.4-5.8-12-5-14.1.6-1.5 1.5-.3 2.8 3.7 1 3.2 2.8 7 3.8 8.4 3.3 4.8 2.5-14.2-1-20.9A70.5 70.5 0 0 0 190 375c-8-5.2-6.2-6.9 2.2-2a65 65 0 0 1 22.6 25.7c2.6 7.5 2.7 17 .4 22.5l-1.8 4zm158.1 0c0-.7 1.7-1.6 3.7-2.1a48 48 0 0 0 7.6-2.8l4-1.9-3.2 2.6c-3.8 3-12.1 5.9-12.1 4.1zm37.3-6.6c0-.8.6-1.4 1.4-1.4.7 0 1.3.6 1.3 1.4 0 .7-.6 1.3-1.3 1.3-.8 0-1.4-.6-1.4-1.3zm-205.5-16a36.4 36.4 0 0 0-11.8-5.4c-5.2-1.5-9.8-3.7-10.2-4.7-1-2.6 2-9.5 4.4-10.5 1.6-.6 1.5 0-.3 3.1-3.2 5.4-1.9 7.4 6 9.2 7.6 1.7 12.9 4.7 14.9 8.5 1.7 3.1-.1 3-3-.3zm177.5-28c0-.6.6-1.6 1.4-2 .7-.5 1 0 .5 1.2-1 2.3-1.9 2.8-1.9.8zm-167-2.3c-1.6-1.5-1-3 .8-2.3 2 .8 4.3-1.5 5.3-5.4.5-2.2.7-2 .8.8 0 1.9-1 4.4-2.3 5.6-2.7 2.5-3.4 2.7-4.7 1.3zm26.6-8.7c.5-2.4 1.5-4.8 2.3-5.3 1-.7 0-2.2-2.5-4.3-2.2-1.7-3.6-3.6-3.1-4.1.9-1 3 .5 7.8 5.2 2.7 2.7 2.9 2.5 4.4-4.2.9-4.3-1.4-13-4.8-18.4-3.6-5.5-4.7-5.7-5.2-1-.3 2-1.2 3.8-2 4-1 .4-1.3-1-.8-4.8.8-6.3.2-7.3-10.7-16.4-6.3-5.2-8.7-6.4-13-6.4-5.8 0-9.3-1-9.3-2.8 0-1.7 17.7-.8 19.3 1 2.2 2.3 12 7.8 10.9 6-.6-1-.2-1.5 1-1.5 1.5 0 2.1 1.3 2.1 4.6 0 3.5 1.2 5.7 4.6 9.2a40 40 0 0 1 10.6 19.3c.9 4.8-1.2 14.9-3 14.9-.7 0-2.6 2-4.3 4.6-4 5.8-5.4 6-4.3.4zm12.4 1c0-.4 3-2.2 6.7-4 3.7-1.9 6.7-2.9 6.7-2.3 0 .6-1.4 1.8-3 2.7-4.4 2.2-10.4 4.3-10.4 3.6zm-43-19c-.6-.4-1-2-.9-3.6.1-2.5.2-2.5 1.4.4 1.3 3.3 1 4.9-.6 3.3zm116.4-24.3c0-2.7 1.8-5.6 4.4-7 2.8-1.4 2.8-1.4.5 2-2.3 3.6-2.3 3.6 1.4 3.6 2.8 0 3.2.3 1.7 1.3-2.6 1.7-8 1.8-8 .1zm-20-4c0-1 4.7-5.4 7.7-7.2.9-.6 2.6-.1 3.7 1 1.9 2 1.8 2.1-1 2.2-1.7 0-4 .6-5.1 1.3-1.7 1-1.7 1.5-.2 2.5 1.3.8.8 1.1-1.7 1.1-1.9 0-3.4-.4-3.4-.9zm-60-4.6c-2.6-1-5.2-1.8-5.8-1.8-.6 0-1.4-.4-1.8-.8-1.5-1.5 7.7.4 11.2 2.3 4.5 2.5 2.7 2.6-3.6.3zm52 0c-4.7-1.3-6.1-2.4-6.5-4.7-.3-2 .1-2.7 1-2.2s1.2 1.4.8 2c-.3.6 2.2 1.9 5.7 2.8a30 30 0 0 1 7.6 2.8c1.6 1.5-1 1.3-8.6-.8zm-34-14.2c-1.5-2.3.1-2.8 2-.6 1 1.2 1.1 2 .2 2-.8 0-1.8-.6-2.3-1.4zm-146 252c0-.7-1-1.3-2.4-1.2-2 0-2 .2-.3 1.3 2.5 1.6 2.7 1.6 2.7 0zm35.9.9a94 94 0 0 0-24.7-2.7c-6.9 1.7-2.6 3 11 3.1 7.9 0 14-.1 13.7-.4zm232-2.2c0-1.8-.8-2.6-2.7-2.6-1.7 0-3-1.1-3.5-2.7-.4-1.5-1.5-2.7-2.5-2.7s-2.4 1.2-3.2 2.7c-1.4 2.5-5.4 3.8-5.3 1.7 0-2.2 2.2-4.1 7.4-6.8 6.2-3.1 7.5-2.7 6.4 2-1 4 1.3 4 3.1 0 4.4-9.7 3-30-3-43.5l-3.7-8.1-3 5c-2 3-3.2 7.2-3.2 10.4 0 2.9-1 9-2 13.6a31 31 0 0 0-1.3 10.2 45 45 0 0 1-6.5 19c-.8.6-1-.3-.6-2.3l3.7-18.2 3-15-3.8-4.4c-3.2-3.5-3.3-3.7-.5-1.3 4.7 4.1 5.3 3.9 5.3-2.3 0-3-.7-5.3-1.5-5.3s-1.1.9-.7 2c1 2.6-1.7 2.5-4.8-.3-1.8-1.7-2.8-1.8-4-.6-1.2 1.2-1.2 1.5 0 1.5 1 0 1.6.6 1.6 1.4 0 .8-1 .7-2.5-.3-2-1.2-3.8-1-9.2 1.2-4.4 1.9-7.1 2.4-8 1.5-2.6-2.7-7 1.3-7 6.3 0 2.6-.8 6-1.8 7.6-1 1.7-2.4 6-2.9 9.5-.8 5.8-.7 6.5 1.3 5.8 1.3-.6 2.1-.2 2.1.9 0 1 1.2 3.1 2.7 4.8 1.5 1.7 2.7 3.6 2.7 4.2 0 .6.9 1.1 2 1.1s3 .7 4.3 1.4c1.8 1.1 23.4 4 39.3 5.1 1.5.1 2.4-.7 2.4-2.5zM343.8 531c0-1 1-4.1 2-7 2.6-7.2 2.5-9.5-.7-12.7-3-3-3.3-4-1.4-4 2.6 0 6.7 6 6.7 9.6 0 2-1.1 6-2.6 8.6-1.4 2.7-2.3 5.4-1.9 6 .4.6 0 1.1-.7 1.1-.8 0-1.4-.7-1.4-1.6zM214 542.2c-2-.3-5.3-.3-7.3 0-2 .4-.4.6 3.6.6s5.7-.2 3.7-.6zm22 .1c-1-.4-2.4-.4-3.3 0-1 .4-.2.7 1.6.7 1.9 0 2.6-.3 1.7-.7zm8.6.1c-.4-.4-1.6-.5-2.5-.1-1 .4-.8.7.8.8 1.4 0 2.2-.3 1.7-.7zm84.4-.7c0 1.8 1.3 1.9 3.9.3 1.5-1 1.3-2-1.4-5.3-3.3-4.2-8.4-5.8-7-2.1.5 1.1-.2 3.2-1.4 4.5-2.2 2.4-2.2 2.6.1 3 1.4.4 3.2 0 4.1-.6 1.1-.9 1.7-.8 1.7.2zm-142.7-2c11.8-1.6 26-2 24-.6-1.6 1.1-1.3 1.4 1.6 1.4 2.9 0 3.4-.5 2.8-2.6-.5-1.9 0-2.7 1.5-2.7 1.2 0 2.1-1 2.1-2 0-4.7-5.8-32.6-8.7-42a281 281 0 0 1-4.6-17c-.9-3.8-2.1-7-2.8-7-.7 0-1.2-.7-1.2-1.7 0-2.7-4.8-8.2-5.8-6.6-1.2 1.9.4 5.8 2 4.9.6-.4 1.1.4 1.1 1.9 0 2.6-7.4 9.1-8.8 7.8-1.2-1.3-5.6 4-6 7.3-.3 2-1.3 3-2.7 2.7-1.4-.2-2.6.8-3.2 2.7-.5 1.6-2.4 4.8-4 7-5.2 6.8-5.9 10-3.8 18.8 2.1 9.1 2.3 12.5.7 12.5-.6 0-1.5-3-2-6.7-.4-3.6-1.1-7.3-1.6-8-1-1.7-5.9 5.7-5.9 8.8 0 1-.8 2-1.9 2-1 0-2.3 1.7-2.8 4-.4 2.1-1.5 4.4-2.4 5-.9.5-3 3-4.7 5.3l-3 4.5 4.4-.7c11.8-1.8 21-2.2 21-.9 0 .8-1.2 1.4-2.7 1.4-1.5 0-2.4.6-2 1.3.8 1.1 8 .9 19.4-.7zM169 533c0-.6 3.8-3.4 8.3-6.2a445 445 0 0 0 12-7.7c3.7-2.5 7.7-3.3 7.7-1.5 0 .6-2.7 2.5-6 4.2-3.3 1.8-9.1 5.2-13 7.7-7 4.5-9 5.3-9 3.5zm18.1-1.4c3.5-3 17.2-12.3 18.3-12.3 2.7 0 0 2.8-8.4 8.4-9.1 6.2-15 8.5-9.9 4zm9.6 9.4a11 11 0 0 0-4.7 0c-1.3.4-.2.7 2.3.7 2.6 0 3.7-.3 2.4-.7zm39.6-1.7c-.4-.7-1.6-1.3-2.6-1.3s-2.2.6-2.7 1.3c-.5.8.7 1.3 2.7 1.3s3.1-.5 2.6-1.3zm-12-1.3c-.4-.8-1.4-1.4-2-1.4-.7 0-1.3.6-1.3 1.4 0 .7 1 1.3 2 1.3 1.2 0 1.8-.6 1.3-1.3zm207.4-11.4c1.6-2.5 3.7-4.6 4.7-4.6s2.8-1.8 3.9-3.9c2-4 4.4-5.5 8.8-5.5 1.4 0 2.6-.8 2.6-1.7 0-2.8 7-8.8 11.4-9.7 2.7-.5 5-2.5 7.2-6.1 1.9-3 5-6.2 7-7.2 1.9-1 4.8-3.7 6.4-6 2.7-3.8 2.8-4.2.7-7.3l-2.1-3.3-16.7 16.8a182.7 182.7 0 0 1-16.6 16c0-1.8 5.3-7.9 18.7-21.6 10.4-10.6 13-14 12.4-16.2-1.2-4.7-4-4.4-10.2 1-6.6 5.9-7.6 6.3-7.6 3.3 0-1 .6-2 1.4-2 2.9 0 1-2.4-2.4-3-8.9-1.8-8.7-1.9-10 3.4-1.1 4.6-1.6 5-6.2 5-3.5 0-6.1 1-8.6 3.3-2 1.8-3.9 3.3-4.2 3.3-1.3 0-.5-2.4 1.7-4.9 2.3-2.6 3.8-3.3 11.3-5 2.5-.5 3.7-1.6 3.7-3.3 0-4.5 3.5-6.7 8.3-5.3 7.8 2.2 12.8 1.5 15.2-2.1 2-3.3 2-3.7-3.5-13a478 478 0 0 0-6-10.1c-.3-.3-8.2 7.4-17.8 17-9.5 9.6-17.7 16.9-18.1 16.2-.5-.7 7-9.2 16.6-18.7l17.4-17.5-5.4-7.2c-5.8-8-6.2-8.7-3.7-8.7 1 0 3.4 2.7 5.5 6a38 38 0 0 0 5 6.7c.6.4 2.7-2.5 4.7-6.3 2-4 3.8-6.4 4-5.5.4.9-1 4.8-2.9 8.7l-3.5 7.1 5.1 9c2.8 4.9 5.8 9 6.7 9 .9 0 5.3-4.4 9.9-9.7l17-19.5c4.9-5.4 9.2-10.5 9.6-11.4.5-.8-2.5-7.4-6.6-14.7-6.5-11.6-8-13.3-11.5-13.8-7-1-8-1-8.5.4-.8 2.1 5.5 4.8 9.6 4 2.6-.5 3.6-.2 3.2 1-.9 2.8-7.3 2.6-14-.5a28.8 28.8 0 0 0-7.4-2.7 296.9 296.9 0 0 0-26.7-5.2 97 97 0 0 1-17.4-3.8 12 12 0 0 0-4.8-1.7c-2.7-.4-3.3-1.1-3-4.3.1-2.2-.9-4.9-2.5-6.6l-2.7-2.9.9 5c.5 2.6 1 10.7 1.1 18 .1 7.1.8 13.5 1.5 14 .8.6.3 1.3-1.3 1.7-2.2.6-2.7 2-2.8 7a46.5 46.5 0 0 1-3.1 17c-1 1.5.6 49.2 2 57.3.5 3 1.8 7.1 3 9.3a41 41 0 0 1 3 9.4l2.6 12.6c.9 4 1.2 10 .8 13-.4 3.2-.5 5.7-.2 5.7.2 0 1.8-2.1 3.4-4.7zm18.3-.7c4.3-3.8 4.3-4 2.2-7.3-3.5-5.3-10.7-2-9.2 4.2.4 1.9-.1 3.2-1.4 3.7-1.2.4-1.7 1.4-1.3 2.1 1.5 2.4 5.3 1.4 9.7-2.7zm64.3.8c0-.3-.6-1-1.3-1.4-.7-.5-1.3-.2-1.3.6s.6 1.4 1.3 1.4c.7 0 1.3-.3 1.3-.6zM466.2 514c4.3-3 11.1-6.8 15.2-8.6a33 33 0 0 0 8.2-4.6c.8-1.4-5.4-9.5-7.4-9.5-.7 0-2.5 2-4 4.3-2.7 4.2-2.8 4.3-2 .7 1.2-5.3-2.9-3.3-4.3 2.1-.8 3.4-1.8 4.3-5 4.7-4.7.5-12.6 6.2-12.6 9 0 2.2 2.4 7.2 3.4 7.2a77 77 0 0 0 8.5-5.3zm54-.5c3.7-2.4 13-7 20.5-10.3a63.2 63.2 0 0 0 13.6-7c0-1.9-11.2-6.2-16.3-6.2h-5l2.7-4.4c1.4-2.3 2.6-4.8 2.6-5.3 0-.6-3 .5-6.9 2.5-5.8 2.9-6.6 3.7-4.9 5 4.8 3.5 6.7 11.3 3.4 14-2.5 2-3.8.4-2-2.8 1-1.9.7-3.4-.9-5.9-4-6.2-6.3-5.8-18.3 3l-6.4 4.6 3.5 7c3.7 7.2 5.7 10.3 6.9 10.3.4 0 3.8-2 7.5-4.5zm-26.5-22.7a31.6 31.6 0 0 0-6.1-8.8c-.6 0-1.8 1.2-2.6 2.7-1.3 2.3-.7 3.6 4 8.8 2.9 3.4 5.3 7.1 5.3 8.3 0 1.9.2 1.9 2.2 0 2-2 1.7-3-2.8-11zm14 2.5c2.5-1.8 4-3.3 3.2-3.3-1.5 0-9.9 5-9.9 6 0 1.4 2.3.5 6.7-2.7zm5.3-6.6c10.8-3.3 30.7-13 30.7-15 0-1-1.2-3-2.7-4.4-2.2-2.3-3.8-2.5-10.5-1.8-7.1.7-8.1.5-9.7-2-1.8-2.9-6.5-4-6.5-1.5 0 2-3.6 1.5-4.4-.7-1.4-3.6-4.1-2-12.1 7.6l-8 9.5 3.2 6.1c5 9.7 5.1 9.8 9.2 7a47 47 0 0 1 10.8-4.8zm-147.3.6c-.5-.7-1.8-1.3-2.9-1.3-1 0-1.6.6-1.1 1.3.4.7 1.7 1.3 2.8 1.3 1 0 1.6-.6 1.2-1.3zm-20.7-.6c0-.3-.6-1-1.3-1.4-.8-.5-1.4-.2-1.4.6s.6 1.4 1.4 1.4c.7 0 1.3-.3 1.3-.6zm-174.7-3.4c0-.7-.6-1.3-1.3-1.3-.7 0-1.3.6-1.3 1.3 0 .7.6 1.3 1.3 1.3.7 0 1.3-.6 1.3-1.3zm200-.6c0-.4-1.3-1.4-3-2.2-2.7-1.5-2.8-1.4-1.1.6 1.7 2 4.1 3 4.1 1.6zm132-23.7c0-1.3-4.1-1.3-6.3.1-1 .6-1.4 2-.9 3.3.5 1.2.5 2.2 0 2.2s-1.3-1.3-2-2.8c-.7-2-3-3.4-7.2-4.5-3.5-.9-6.6-1.1-7-.5-.4.7.3 3 1.6 5.1l2.4 4 3.2-3 3.2-3-1 3.4c-.5 1.8-1.6 3.7-2.4 4.2-1 .7-.8 2 .5 4.5l1.9 3.6 7-7.8c3.9-4.2 7-8.2 7-8.8zm-326.1 12.9c.4-1.2.2-1.7-.5-1.3-.8.5-1.4 1.4-1.4 2.1 0 2 1 1.5 1.9-.8zm372.1-2c.5-.7 0-1.3-1.2-1.3s-2.1.6-2.1 1.4c0 .7.6 1.3 1.3 1.3.6 0 1.6-.6 2-1.3zm-206-.4c0-.3-2-2.2-4.6-4.1-3.5-2.7-4.7-3-4.7-1.5 0 1 1.7 2.9 3.7 4 3.6 2 5.6 2.5 5.6 1.6zM176 459.9c-.9-4.6-1.7-4.2-1.7.7 0 2.3.6 3.8 1.2 3.4.6-.4.9-2.2.5-4.1zm361.3 1c1.2-.6-6.5-16.4-8-16.4-.6 0-1.8.8-2.7 1.6-1.2 1.3-1.6 1.2-1.6-.4 0-1 .7-2.6 1.5-3.4 1.6-1.6.3-7.5-1.5-6.8-2 .7-14.7 18.4-14.7 20.6 0 1.6 1 1.9 4.7 1.2 3.9-.7 5-.3 7.6 2.6 2.6 3 3.7 3.3 8.4 2.5 3-.4 5.8-1.1 6.3-1.4zm-204-4.6c-1.3-1.3-1.6-1-1.6 1.6 0 2.5.3 2.8 1.6 1.6 1.2-1.3 1.2-2 0-3.2zm168.3-2.1c6.3-.9 6.1-.8 15.3-13.4l7.1-9.8-3.7-6.9c-2-3.8-4-7.4-4.6-8-.5-.5-4.5 2.8-8.8 7.4-9.7 10.4-25 29-24.4 29.7a26 26 0 0 0 11.8 2.4c1.1-.4 4.4-1 7.3-1.4zm-156.6.4c0-.3-2-1.8-4.3-3.4l-4.4-2.9 4 3.5c4.1 3.5 4.7 3.8 4.7 2.8zm11.2-.5c.7-1-5-6.9-6.6-6.9-.4 0-.4 1.4.2 3 1.3 4.2 4.9 6.4 6.4 3.9zm-194.1-5c-.4-.3-1.2.4-1.7 1.7-.7 2-.5 2 .8.8.9-1 1.3-2 .9-2.4zm184.9.8a3.1 3.1 0 0 0-2.4-1.3c-1 0-.8.5.4 1.3 2.6 1.6 3 1.6 2 0zm-173.1-5.7c-.4-1-.7-.2-.7 1.7 0 1.8.3 2.6.7 1.6.4-.9.4-2.4 0-3.3zm368.4-19.7a65 65 0 0 0 11-14.9c-.6-2-9.6-22.8-10.3-23.5-.2-.2-4.2 3.6-8.9 8.6l-12.7 13.5-4.4 4.5 3.6 7c2.5 4.6 3.7 6 4 4.5.7-2.9 4.4-3.1 4.4-.2a12 12 0 0 1-1.3 4.5c-1.3 2.5.6 9.5 2.5 9.3.4 0 5.9-6 12.1-13.3zM331 434c-.4-.8-1.4-1.4-2.2-1.4-.7 0-1 .6-.5 1.4.5.7 1.5 1.3 2.2 1.3.7 0 1-.6.5-1.3zm-20.7-1.4a8.8 8.8 0 0 0-4-1.3c-1.7 0-1.7.2 0 1.3 1.1.7 3 1.3 4 1.3 1.8 0 1.8-.1 0-1.3zm34-3.6a28 28 0 0 0-1.3-5.5c-.2-.2-2.7-.2-5.5.1l-5.2.5 4.5 1.8c3 1.2 4.1 2.3 3.6 3.8-.8 2 1.2 4.2 3.8 4.2.6 0 .7-2.2.2-5zm-83.6.3c-2.2-2.3-3.9-3-6-2.5-1.7.5-3 1.3-3 1.8 0 1.4 5.5 3.8 9 4h3l-3-3.3zm13.6-2c0-.7-1-1.3-2.3-1.3-2 0-2 .2-.3 1.3 2.5 1.6 2.6 1.6 2.6 0zm11.1 0c.9 0 .1-.9-1.6-1.9-3.7-2-7-2-7.8.2-.5 1.6 3.3 3 6.1 2.2 1-.3 2.5-.5 3.3-.5zm22-.8c-.5-.4-1.7-.5-2.6-.1-1.1.4-.8.7.8.8 1.4 0 2.2-.3 1.7-.7zm-18.4-2.5c-4.4-2.5-6.7-2.5-3.4 0 1.4 1 3.5 2 4.7 2 1.3-.1.8-.8-1.3-2zm11.3.6c-1.4-.6-3.5-1.1-4.6-1.2-1.8 0-1.8 0 0 1.2 1 .7 3.2 1.3 4.6 1.3l2.7-.1-2.7-1.2zm23.4 0a8.2 8.2 0 0 0-4-1.2c-1.3 0-1.1.5.6 1.2 3.7 1.6 5.8 1.6 3.4 0zm17.8-7.3c-.6-1.6-2.3-1.9-7-1.4l-11.2.7c-3 0-4.8.6-4.3 1.4.5.7 5.9 1.3 12 1.3 9.5 0 11.1-.3 10.5-2zm-94.5-4.8c1.2-2.2 2-5 1.6-6.3-.4-1.6-1.2-.7-2.7 2.7-3.6 8-2.6 11 1.1 3.6zm59.3 2.8c1.8-1.1 1.8-1.3 0-1.3-1 0-2.9.6-4 1.3-1.7 1.2-1.7 1.3 0 1.3 1.1 0 3-.6 4-1.3zm20.3-3.7c1.5-1.8 1-2-5-1-9 1.2-12 2.1-10.2 3.2 2.5 1.5 13.4 0 15.2-2.2zm-153 1c.5-.7.3-1.3-.5-1.3s-1.4.6-1.4 1.3c0 .8.2 1.4.6 1.4.3 0 1-.6 1.4-1.4zm114.3-1.2c1.7-.7 4.8-1.6 6.8-2 2-.5 3.4-1.4 3-2.1-1.3-2.1-4.9-1.5-12 2-4.8 2.2-5.9 3.2-3.8 3.2 1.7 0 4.4-.4 6-1.1zm23.4-2.2c-.4-.5-1.6-.5-2.5-.1-1.1.4-.8.7.8.8 1.4 0 2.2-.3 1.7-.7zm-49.9-9.4c5.5-7.7 5.6-8.1 3-11.7-1.8-2.3-2.2-2-5.4 5-3.6 8-6 17.2-3.7 14.9.7-.8 3.4-4.4 6.1-8.2zm8.2 4.6c5.1-3.6 6.8-6.4 3.7-6.4-1.2 0-7 5-9.5 8.3-2.6 3.4-1 2.9 5.8-1.9zm47 3.4c-.4-.4-1.6-.5-2.5 0-1 .3-.8.7.8.7 1.4 0 2.2-.2 1.7-.7zm255-20c0-.8-2.5-7.4-5.7-14.7-3.2-7.2-7.4-17.3-9.4-22.5-2-5.1-4-10-4.6-11-1-1.6-26.9-4.2-26.9-2.7 0 .8 9.7 23.4 14 32.8 1.9 3.8 3.3 7.6 3.3 8.3 0 1.7.9 1.6 4-.3 3.8-2.4 5-.2 1.3 2.7l-3 2.5 3 7.2 5.6 13 2.6 5.6 8-9.7c4.3-5.3 7.9-10.4 7.9-11.2zM278.4 403c0-.8-.8-.7-2 .3-1 1-2 1.9-2 2.1 0 .3 1 .1 2-.3 1.1-.4 2-1.4 2-2.1zM175 399.2c-.7-2-1.3-2.5-2.3-1.5-1 1-1 2 .3 3.5 2.2 2.7 3.2 1.7 2-2zm79.2-1.7 1.5-4.3-2.7 3.3a12.4 12.4 0 0 0-2.6 5.1c0 3 2.3.5 3.8-4zm-99.3 2.7c.3-1 .8-4.8 1.1-8.7.5-5.1.2-7-1.1-7-3 0-3.6-2.8-.7-3.5 1.5-.4 2.8-1.6 2.8-2.5 0-2.3-7.3-.4-10.7 2.8-1.5 1.3-4.8 2.1-8.5 2.1-3.4 0-6.1.5-6.1 1.2 0 2.8 6.1 11 10.5 14 5 3.5 11.9 4.3 12.7 1.6zm142.6-8.3c-.7-1.8-1.5-1.6-5.6.9a2298 2298 0 0 1-7.2 4.3c-1.3.8-2.4 2.2-2.4 3.1 0 1.1 2.8.3 8-2.3 5.7-3 7.7-4.6 7.2-6zm.8 8c1.9-1 2.8-2 2-2-.7 0-2.8 1-4.6 2-1.9 1-2.8 1.9-2 1.9.7 0 2.8-.9 4.6-2zm117 .2-.6-3.9c-.7-3.7-5.2-5.4-5.3-2 0 1-.4 3.1-1 4.8-1 3-.8 3.2 2.8 2.3 2-.6 3.9-1 4-1.2zm4.3-7.3c0-1.8-.6-3-1.4-2.7-.8.3-1.4 1-1.3 1.5l.1 4.6c0 2.9.3 3.2 1.3 1.7.7-1.1 1.3-3.4 1.3-5.1zm-286 3.4c-.6-1-2-2.7-3-4-1.1-1.3-1.7-2.7-1.3-3.1.9-.9-3-5.9-4.5-5.9-1.6 0 1.2 9.5 3.6 12.1 2.6 2.9 6.7 3.6 5.1.9zm150-1.9c3.3-2 8-5 10.2-6.7 2.3-1.7 4.8-3 5.6-3 .9 0 3.2-3.2 5.2-7 3.9-7.6 15-31.6 15-32.4a56 56 0 0 0-12.4-4c-1.5 0-22.2 37.3-22.2 40.2 0 .5 1 0 2.3-1.1 3.7-3.2 5.5-4 6.3-2.6.4.6-3.8 4.9-9.3 9.4-5.5 4.5-9.7 8.8-9.3 9.5 1.2 1.8 1.8 1.7 8.6-2.3zM325 388c-.6-.6-5.4.8-10.9 3.3-14 6.3-14 7 0 2.2 6.8-2.4 11.6-4.8 11-5.5zM163.2 392c.4-1.1.3-3-.2-4.4-.9-2.1-1-2-2 .4-.6 1.4-1.2 3.4-1.2 4.3-.2 2.3 2.5 2 3.4-.3zm162-10c3.2 0 4.5-2.2 8.3-13.7 5.9-17.5 4.5-22.3-6.3-22.3h-4.6l-11.5 22.8-11.4 23.2c0 .2 5.2-2 11.6-4.8a81 81 0 0 1 13.9-5.2zm-151.3 6c-.4-1-1.1-4-1.6-6.6-.7-3.6-1.3-4.3-2.5-3-2.7 2.7-3.6 6.2-1.4 5.4 1.4-.6 2 .2 2 2.7 0 2.3.7 3.5 2 3.5 1.4 0 2-.8 1.5-2zm-28.2-9.8c2.2-1.2 1.6-1.4-3.4-.8-3.3.5-8.5.2-11.6-.5-7.3-1.7-8.6-.2-2.2 2.5a20.2 20.2 0 0 0 17.2-1.2zm268.4-7.3c.6-9.9-8.6-34.3-13-34.3-.6 0-1.4-1.2-1.8-2.6-.4-1.5-1.8-2.7-3-2.7-1.3 0-4.2-1.9-6.5-4.2a28 28 0 0 0-9-5.8c-4.6-1.5-5-1.5-3.8.6.7 1.3 5.7 7.8 11.2 14.6 9.1 11.1 13 13.6 10.8 6.8-.5-1.5-.2-2.7.6-2.7 1.4 0 2 1.8 1.5 5.2-.2 1 .3 1.4 1 1 1.4-1 5.6 10.7 5.6 15.4 0 1.6 1 2.5 3 2.5l3 .1-3 1.2c-4.6 1.8-3.8 12.6.8 11.7 1.6-.3 2.3-2.2 2.6-6.8zm29.6 5.7c0-.7-1.7-1.3-3.7-1.3-2.9 0-3.2.3-1.7 1.3 2.6 1.7 5.4 1.7 5.4 0zm-293-3.2c2-1 3.6-1.4 3.6-.8 0 .7 2.4 0 5.4-1.6 2.9-1.6 5.3-3.3 5.3-4 0-1.4.4-1.5-8.7 1.8-7.1 2.5-17 4-25.7 3.9-1.7 0-2.7.5-2.3 1.3 1.3 2 18.2 1.6 22.4-.6zm280.3-2.1c-.4-.7-1.7-1.3-2.7-1.3-1.1 0-2 .6-2 1.3 0 .7 1.3 1.3 2.8 1.3 1.5 0 2.4-.6 1.9-1.3zm10.5-.7c-.8-2-4.6-4.6-6.7-4.6-1 0 6.1 6.4 7.2 6.6.1 0-.1-.9-.5-2zm-37.8-2c0-.6-1-.9-2-.4-1.1.4-2 1-2 1.2 0 .3.9.6 2 .6 1 0 2-.6 2-1.3zm-353.8-6c-.5-1-1.5-2-2.2-2-1 0-1 .9 0 2.8 1.7 3.1 3.4 2.5 2.2-.7zm365.8-6-1.4-3.3.6 3.3c.4 1.9.8 4.9 1 6.7l.2 3.3.5-3.3c.3-2-.1-5-1-6.7zm-392.4 5.9c-.4-.4-1.6-.5-2.5-.1-1.1.4-.8.7.8.8 1.4 0 2.2-.3 1.7-.7zm32.4-4c0-2.3-2.9-2-3.7.6-.3.8.4 1.5 1.6 1.5 1.1 0 2-1 2-2zM9 358.1c0-.6-1-2.2-2-3.6-1.9-2.4-2-2.4-.5 1 1.6 3.7 2.5 4.6 2.5 2.6zm395.4-5c-.5-2.6-1.2-4.5-1.6-4.1-.5.4-.4 3 .1 5.6.5 2.7 1.3 4.5 1.7 4.1.4-.4.3-2.9-.2-5.6zm-385-.4c.4-1.1-.6-1.3-3.3-.7-5.5 1.3-6 1.9-4.3 4 1.3 1.6 2 1.7 4.3.1 1.5-1 3-2.5 3.3-3.4zm32 .5c-.4-.4-1.1.3-1.6 1.6-.8 2-.6 2 .7.8 1-1 1.3-2 1-2.4zm13.5-.9c1.8-5.3.8-6.4-2.7-3-1.6 1.7-2.3 3.6-1.8 5 1.3 3.4 2.8 2.7 4.5-2zM4.6 343c-.4-1-.7-.2-.7 1.6 0 1.9.3 2.6.7 1.7.3-1 .3-2.4 0-3.3zm311-3.7c-5-2.7-8-3.3-8-1.6 0 .6 2.3 1.8 5 2.5 7.6 2.1 8.2 2 3-.9zm93.2-.6c-.8-1.8-2.3-3.6-3.3-4-2.4-.9-2.3.1.5 4 3 4.2 4.7 4.2 2.8 0zm-215.3-9.4c.4-4 .3-5.8-.4-4.7-1.5 2.8-3.2 16-1.6 13.4.6-1.1 1.5-5 2-8.7zm-4.5 1.6c0-.6-.6-.7-1.3-.3-.8.5-1.4 1.9-1.3 3.1 0 2 .2 2 1.3.3a8.3 8.3 0 0 0 1.3-3.1zm94-11.5c-1-.8-3.3 2.6-3.3 4.6 0 .7 1 .1 2-1.3 1-1.4 1.6-2.9 1.2-3.3zm-194.3-3.5c3.7-2.6 3.8-5.5.4-6.6-3.5-1-8.1 1.5-8.1 4.5 0 4.6 3 5.4 7.7 2zm306.4.9c-.4-.6-2-1.5-3.5-1.9-2.3-.6-2.5-.4-1.2 1.2 1.7 2 6 2.7 4.7.7zm-30.8-1.3c-2.7-2.5-7-3-7.8-.9-.6 1.6.3 2 4.1 2 3 0 4.4-.4 3.7-1.1zm-300.6-2.9c0-.7-1-1.3-2.1-1.3-1.2 0-1.7.6-1.3 1.3.5.8 1.4 1.4 2.1 1.4.7 0 1.3-.6 1.3-1.4zm320.5-2c-3.8-3.1-11.3-6.2-16.5-7-6.4-.8-5 .1 7.3 5.4 11 4.7 13.7 5.1 9.2 1.6zM269 305.8c0-.6-1.3-1.9-2.8-2.7-1.6-.8-2.6-1-2.2-.4l1.5 3.6c.8 2.3 3.5 2 3.5-.5zm83.8-.5c3.3.6 4.4.4 3.5-.5-.7-.7-7.6-1.7-15.3-2.2-7.7-.6-13.6-.5-13 0 .5.5 4.7 2 9.3 3.3 7.1 2 8.5 2 9.5.4.7-1.3 2.4-1.6 6-1zm-318.9-1c-.4-1-.7-.8-.8.8 0 1.4.3 2.2.7 1.7.5-.4.5-1.6.1-2.5zm70.5-9.2c1.4-2.3 0-2.7-2.8-.6-2.3 1.7-2.3 2-.3 2 1.2 0 2.6-.6 3-1.4zm-78-1.2a8.2 8.2 0 0 0-4-1.3c-1.4.1-1.2.5.6 1.3 3.7 1.5 5.8 1.5 3.3 0zm173.1-.5c1.3-1.5.8-2-2.5-2.5-2.2-.3-4-.4-4-.2 0 4 4 5.7 6.5 2.7zm-24.5-7.9c-2.5-1.4-4-.5-2.8 1.6.5.7 1.8 1 3 .5 1.9-.7 1.9-1-.2-2zm-46.5-.7c-1.3-.3-3 0-3.7.8-.9.8 0 1 2.4.5 2.8-.6 3.2-.9 1.3-1.3zm-6.7-1.8c1.1-1.8-1.3-1.3-4.2.8-2.5 1.9-2.5 2 .4 1.2 1.7-.4 3.4-1.3 3.8-2zm43.2.7c0-.3-1.5-.5-3.4-.5s-3 .5-2.7 1.2c.7 1.1 6.1.5 6.1-.7zm29.3.3c0-1-1.5-2.1-3.3-2.5-3.8-.7-4.8 2.5-1 3.4 4 1 4.3 1 4.3-.9zm-40-.8c-2.6-1.7-8.4-1.7-7.3 0 .5.7 2.7 1.3 5 1.3 3.3 0 3.9-.3 2.3-1.3zm25.4-1.3c0-.8-.7-1.4-1.4-1.4-.8 0-1 .6-.6 1.4.4.7 1 1.3 1.4 1.3.3 0 .6-.6.6-1.3zm46 0c-3.7-1.6-4.7-1.6-4.7 0 0 .7 1.7 1.3 3.7 1.2 3.2 0 3.3-.2 1-1.2zm-94-1.4c1.7-1.1 1.7-1.3 0-1.3-1.1 0-3 .6-4 1.3-1.8 1.2-1.8 1.3 0 1.3 1 0 2.9-.6 4-1.3zm41.3 0c0-.6-2.3-1.9-5.2-2.8-3-.8-5.5-2.5-5.8-3.8-.8-3-6.4-4-15.8-2.7-6.7 1-13.2 3.2-13.2 4.6 0 1.1 20.4.6 22.7-.6 1.5-.8 2.6-.9 2.6-.2 0 1.4 10.4 6.9 13 6.9 1 0 1.7-.6 1.7-1.3zm34-4.6c3-1 7.3-2 9.6-2 5 0 6.9-2.2 3.9-4.5-4-2.9-.3-5.3 8.7-5.9 8.8-.5 15.8-2.5 15.8-4.4 0-.7-.7-3.9-1.6-7.2-1.3-4.9-2-5.9-4-5.3-2.6.8-2.5 1-5-10-1-4.1-2.9-9.8-4.2-12.7l-3.1-7.4a174 174 0 0 0-6-11.3 56.7 56.7 0 0 1-5.4-11.2c0-1-1.3-3-3-4.3a124 124 0 0 0-35.7-11.2c-3.3-.3-7.1-.9-8.5-1.4-2-.8-2.3-.6-1.4.9.7 1 1.3 12.7 1.5 25.9.3 30.7.7 34.3 5 44.3 5.4 13 4.2 23.1-1.5 12-1.6-3.2-3.9-9-5.2-12.9-2-6.2-2.5-7-3.9-5-.9 1.2-2.5 2.2-3.6 2.2-1 0-2.3.4-2.8.9-1 1 5.1 8.6 13.7 17.2 3 3 5.4 5.9 5.4 6.5 0 3.1 7.7 6.8 16 7.5l9.3 1c.4.1 3-.6 6-1.7zm-72-8.7c.5-.7.3-1.3-.3-1.3-1.4 0-5.7 3.4-5.7 4.5 0 1.2 5-1.5 6-3.2zm-3.5-2.1c6.7-3.4 18.8-4 24-1.3 4.5 2.3 6.5 2 4.9-.5-.5-.8-2-1.4-3.3-1.4-1.3 0-3.4-1.2-4.7-2.6a36.5 36.5 0 0 0-11.9-5.5c-5.2-1.6-10-3.4-10.8-4a5.4 5.4 0 0 0-3.1-1.3c-1.5 0-1.7 1-1 4.4.6 2.4 1 6.6.8 9.3 0 2.8 0 5 .3 5s2.5-1 4.8-2.1zm122-7.2c-1-4.3-1-4.2-3.6-3.3-1.2.5-2.2 2.3-2.2 4 0 2.6.6 3.2 3.3 3 2.8-.3 3.1-.8 2.4-3.7zM152 241.1c-.4-1-1-1.7-1.4-1.4-.3.4-.2 1.3.2 2 1.4 2.2 2.1 1.8 1.2-.6zm87.1-8.9c-.4-1-.7-.2-.7 1.7 0 1.8.3 2.6.7 1.6.4-.9.4-2.4 0-3.3zm5.7-6.7c-1.2-4.6-3.9-7-3.9-3.5 0 1.6 4.3 9.3 4.9 8.8.2-.2-.2-2.6-1-5.3zm-83.9 2.3c0-1.2-.6-1.7-1.3-1.3-.8.5-1.4 1.4-1.4 2.1 0 .7.6 1.3 1.4 1.3.7 0 1.3-1 1.3-2.1zm-90.7-.5c0-.6-1-1.5-2-2-3.3-1.2-3.8-1-2 1.2 1.9 2.3 4 2.7 4 .8zm151-31c-1-1-1.6-1-1.6-.3 0 .8.4 1.8.9 2.3.4.5 1.2.6 1.5.2.4-.4 0-1.4-.9-2.3zm8.5-8c-2.5-3.6-2.8-1.4-.5 3.8 1.3 2.7 1.8 3 2.1 1.4.3-1.2-.5-3.6-1.6-5.2zm12.7-3.9c-1.5-3.3-2.7-4.8-2.7-3.4-.1 2.4 4 10.5 4.8 9.7.3-.2-.7-3-2.1-6.3zM221 186c0-1.9-.7-2.4-2.7-1.9-1.4.4-2.6 1.6-2.6 2.6s1.2 1.8 2.6 1.8c1.8 0 2.7-.9 2.7-2.5zm-5.3-5.5c0-.7-1.4-1.3-3-1.3-2.5 0-2.6.3-1 1.3 2.6 1.7 4 1.7 4 0zm-23-3.4c-.5-.5-1.7-.5-2.6-.1-1 .4-.8.7.8.8 1.4 0 2.2-.3 1.7-.7zm38.9-15.9c0-.7-.9.2-2 2-1 1.8-1.8 4-1.8 4.7 0 .7.8-.2 1.9-2 1-1.9 1.9-4 1.9-4.7zm-16.8 2.8c.3-1 1-6.7 1.6-12.7.9-10 1.4-11.4 5.5-15.7 2.4-2.7 4.3-5 4-5.2-.2-.3-2.3.2-4.6 1-3.3 1.3-5 3.5-8 10.4-4 8.8-6.5 20.2-5 22.7 1.2 2 5.6 1.7 6.5-.5zm6.9-22.1c.4-.8.2-1.4-.6-1.4s-1.4.6-1.4 1.4c0 .7.2 1.3.6 1.3.3 0 1-.6 1.4-1.3zm41.8-32.4 1.5-4.3-2.6 3.3c-3 3.7-3.4 5.4-1.5 5.4.6 0 1.8-2 2.6-4.4zm-31.3 2.2c2.6-1 2.9-5.8.4-5.8-2.2 0-5 2.7-5 4.9 0 1.9 1.4 2.2 4.6 1zm-8.5-3.2c0-.7-.3-1.3-.6-1.3s-1 .6-1.4 1.3c-.5.8-.2 1.4.6 1.4.7 0 1.4-.6 1.4-1.4zm-21.4-8.3c0-3.9-.4-5-1.2-3.7-1 1.9-.5 9.4.7 9.4.3 0 .5-2.6.5-5.7zm65-4.4c-1.2-1.3-3.8.7-2.8 2.3.5.9 1.3.9 2.2 0 .8-.9 1-1.9.6-2.3zm-66.7-10.2c-.4-1-.8-.7-.8.8 0 1.4.2 2.2.7 1.8.4-.5.5-1.6 0-2.6zm-2.9-7.1c-1.2-2-2.6-3.2-3-2.8-.7.7 4 7.5 4.8 6.7.3-.2-.5-2-1.8-4zm16.8-1c-.4-2.7-.9-3.4-1.2-1.9-.5 2.3.4 6.3 1.4 6.3.3 0 .2-2-.2-4.4zM382 570.2c2.4-.3 6.3-.3 8.7 0 2.4.3.4.6-4.4.6-4.7 0-6.7-.3-4.3-.6zm196.3-12.9c0-1.2 4-1.9 4.7-.7.5.7-.4 1.3-2 1.3-1.4 0-2.7-.3-2.7-.6zm-9.5-1.7c1-.4 2-.3 2.5.1.5.5-.3.8-1.7.7-1.6 0-2-.4-.8-.8zM447 554c.4-.7 3-1.7 5.6-2.2 3.5-.6 4.2-1.2 2.8-2a9 9 0 0 0-5.2-.5c-9.6 1.9-15.9 2.2-15.9 1 0-.9.7-2 1.6-2.5.9-.5 25.9-1.1 55.7-1.3a668 668 0 0 0 54.4-1.6c.2-.6 5.5-.8 11.8-.5l11.4.6-.4-5.9-.5-5.8-5 .4c-5.7.4-6.4-.6-1.6-2.4 2-.8 4.5-.8 6.6 0 2.6 1 3.3 2.3 3.6 7l.4 5.7 6.7.3c14.6.7 26 2 26 2.9 0 .5-18 .9-40 .7-38.2-.2-49.6.7-31.7 2.6 11.5 1.2 25.3 3.6 24.6 4.4-.4.3-7.2-.4-15.1-1.5-9.5-1.4-25.6-2.3-46.5-2.5-27-.2-33.2 0-40.2 2-9.4 2.8-10.2 2.9-9.1 1.1zm81.3-14.7c3.7-1.6 4.7-1.6 4.7 0 0 .7-1.6 1.3-3.7 1.2-3.2 0-3.3-.2-1-1.2zm-436-6.5c-4.4-2.6-5.9-6.6-3-8.3 2.8-1.8 6.4-1.4 6.4.8a2 2 0 0 1-2 2c-3.2 0-2.4 1.7 2.3 5 5 3.5 2.2 3.9-3.7.5zm4.7-4.2c0-.7.6-1.3 1.3-1.3.6 0 1.6.6 2 1.3.5.8 0 1.4-1.2 1.4s-2.1-.6-2.1-1.4zm-8-8.2c0-1.2 4-2.5 5.5-1.7.6.4 1-.6.8-2.3-.2-2.3.5-3.2 2.7-3.5 1.7-.3 3 .2 3 1s-.6 1.4-1.3 1.4c-.8 0-1.4 1.4-1.4 3.1 0 2.7-.6 3-4.6 3-2.6 0-4.7-.5-4.7-1zm36-8.3c0-.2 1-1.3 2.3-2.3 2.2-1.7 2.2-1.6.5.5-1.7 2.2-2.8 3-2.8 1.8zm450.7-25.3c0-1 .9-2.2 2-2.6 1-.4 2.9-3 4-5.8 1.5-3.2 2.5-4.4 3-3.2.9 2.4-3 9.7-6.4 11.8-2.1 1.4-2.6 1.3-2.6-.2zm10.4-15c1-.5 2.1-.4 2.5 0 .5.5-.3.8-1.7.7-1.6 0-1.9-.4-.8-.8zm-16.8-5.5c3.1-6.5 4.3-8.3 5.3-8.3.6 0 1 .3 1 .8 0 1.6-4.6 8.5-5.7 8.5-.6 0-.9-.4-.6-1zm-465.5-77.8c-13.7-2.8-17.8-4.8-14.1-6.9 1.5-.8 2.6-.6 3.8 1 2.2 3 12.7 4.4 14.3 1.9 1-1.5 1.2-1.4 1.2.5 0 1.5 1 2.3 3.2 2.3 4.1 0 7.5 1.3 7.5 2.8 0 1.5-.6 1.4-15.9-1.6zm-30-35.5c.5-1.3 1.2-4.4 1.6-7 .5-4 0-5-3.8-8.3-3.8-3.2-4-3.7-1.8-3.7 4.7 0 7.4 3.1 8.2 9.5a19 19 0 0 1-.9 9c-1.8 3.4-4.8 3.9-3.4.5zm71.2-14.5c0-1.4.7-3.4 1.4-4.5 1-1.5 1.1-1 .5 2-1.1 4.9-1.9 6-1.9 2.5zm-35-11c-3.2-.6-2.5-4 1.4-6.6 2.7-1.8 3-1.8 2.2.2-.5 1.2-1.5 2.2-2.2 2.2-.6 0-.8.6-.4 1.4.5.8 2.8 1 5.4.5 2.8-.5 4.6-.3 4.6.5 0 1.4-7.1 2.6-11 1.8zm50.7-11.8c-5-1.2-9-2.6-9-3.3 0-1.6 1.7-1.4 11.1 1 16.3 4.2 14.5 6-2.1 2.3zM313 276.3c0-3.8 80.5-7 128.7-5l37.6 1.4c11.2.3 12.4.6 12.4 2.9 0 1.9-.6 2.3-2.4 1.6-1.2-.5-17.9-1.8-37-2.9a804 804 0 0 0-131.6 3c-6.2.7-7.7.5-7.7-1zm-39.4-44c3.6-2.2 23.4-3.3 23.4-1.3 0 1-2.6 1.5-6.5 1.5-3.5 0-9.4.4-13 .8-5.5.6-6.1.5-3.9-1zm-.3-25.2c.6-2 5-3.6 10.7-3.8 5.5-.2 4.4 2.1-1.3 3a42 42 0 0 0-7.5 1.6c-1.9.8-2.4.6-2-.8zM273 174c0-.8 2.6-1.3 5.7-1.2 4.8 0 5.1.3 2.3 1.2-4.8 1.5-8 1.5-8 0zm1-102.2c-1.7-1.7-1-5.5 1-6.3 2.1-.8 1.6-6.8-.8-9.5-1.6-1.7-1.5-3.4.2-3.4.8 0 2.4 2.4 3.6 5.4 1.1 2.9 2.9 5.3 3.9 5.3 2.3 0 2.2-1.4-.3-5-1.2-1.7-1.5-3-.7-3 3.1 0 1-3.6-4.9-8.3a25.8 25.8 0 0 0-6.7-4.5c-1 1 2.7 18.1 4 18.1.7 0 1 .8.7 1.7-.3 1-2.2 1.7-4.1 1.7-2.8 0-3.4-.4-2.8-2.3.5-1.7 0-2.4-1.8-2.4-1.5 0-3.4-.9-4.3-2-1-1.1-2.4-2-3.3-2-2.1 0-5.3-9.7-4.3-13.3.5-1.8 0-3.1-1.2-3.6-2.9-1.1-2.2-2.8 1.1-2.6 2.6.1 3 1 3.4 6.5.3 4 1 6.3 2.1 6.3s1.5-1.5 1.1-4.6c-.3-2.9 0-4.7 1-4.7.8 0 1.5 1.4 1.5 3 .2 5 1.3 9.5 2.4 10.3.6.4 1.5 1.6 2 2.7s.5-.7 0-4c-.4-3.3-.7-7.2-.7-8.6.2-3.6-2.8-6.5-9.1-9.4-3-1.3-5.3-3-5.3-3.5 0-.7-.8-1.2-1.8-1.2-1.8 0-6.2-4-6.2-5.7 0-1.6 4-1 7.2 1.1 2.5 1.7 3.2 1.7 3.8.3a31 31 0 0 1 8.4-6.4c9.3-5.5 18.5-14 17.3-15.9-2.8-4.4 13.2 4.6 21 11.9 5.4 5 3.6 7.9-2.3 3.4-5.7-4.4-7-4.2-7.9 1-1.6 9.8-3.3 16-4.7 16.9-1.5 1-.5 6.8 1.1 6.8.6 0 2-2.6 3.2-5.8 1.3-3.2 3.7-7 5.4-8.5 1.7-1.5 3.4-3.5 3.7-4.5.4-1 1.5-1.4 3-.8 2.1.8 2 1.2-1 5-1.9 2.1-5.3 7.8-7.7 12.6l-4.3 8.7 2.9 3c3.5 3.8 3.6 5.7.5 7.4-1.2.8-2.1 1.7-2 2.1 1.1 2.4-.2 3.4-4.3 3.4-2.6 0-4.7.6-4.7 1.2 0 .7-1.2 1.5-2.7 1.9-1.5.4-2.5 1.4-2.3 2.3.4 1.9-2 3.1-3.4 1.8zm-71.7-8.1c0-1.3 5.7-4.4 8.1-4.4 2.2 0 1.4 2.3-1 3-1.3.4-3.4 1.1-4.7 1.7-1.3.5-2.4.4-2.4-.3zm35.8-4.3c5-4.6 5.6-4.9 5.6-2.3 0 1-2.3 2.8-5 4l-5 2.4zm-8.5-5.5c-1.4-2.3-.2-2.5 3.4-.5 3.2 1.7 3.2 1.8.4 1.9-1.6 0-3.3-.6-3.8-1.4zm-2-6.5c0-.7 2.2-2 4.9-2.8 2.6-.9 6-3 7.5-4.8 2.8-3.1 5-4.1 5-2.2-.1 2.7-17.3 12.4-17.3 9.8z"/></svg>